<svg width="40" height="46" viewBox="0 0 40 46" fill="none" xmlns="http://www.w3.org/2000/svg">
<path fill-rule="evenodd" clip-rule="evenodd" d="M32.5879 22.8628C31.9081 24.2578 30.5886 25.1803 29.0892 25.1803H14.1947L11.9955 29.6803H35.9866V34.1803H11.9955C8.95667 34.1803 7.03739 30.5128 8.49684 27.4978L11.1958 22.0078L3.99852 4.93027H0V0.430267H6.53757L8.41687 4.93027H38.0059C39.5253 4.93027 40.485 6.77527 39.7452 8.26027L32.5879 22.8628ZM34.6072 9.43028H10.3162L15.0544 20.6803H29.0892L34.6072 9.43028ZM11.9956 36.4303C9.79643 36.4303 8.01709 38.4553 8.01709 40.9303C8.01709 43.4053 9.79643 45.4303 11.9956 45.4303C14.1948 45.4303 15.9941 43.4053 15.9941 40.9303C15.9941 38.4553 14.1948 36.4303 11.9956 36.4303ZM28.0096 40.9303C28.0096 38.4553 29.789 36.4303 31.9882 36.4303C34.1874 36.4303 35.9867 38.4553 35.9867 40.9303C35.9867 43.4053 34.1874 45.4303 31.9882 45.4303C29.789 45.4303 28.0096 43.4053 28.0096 40.9303Z" fill="#152C5B"/>
</svg>
