<svg width="40" height="46" viewBox="0 0 40 46" fill="none" xmlns="http://www.w3.org/2000/svg">
<path fill-rule="evenodd" clip-rule="evenodd" d="M16.6667 3.51045C16.6667 1.77324 18.1556 0.370911 20 0.370911C21.8444 0.370911 23.3333 1.77324 23.3333 3.51045V5.95928C30.3111 7.38254 35.5556 13.243 35.5556 20.2546V32.8128L40 36.9988V39.0918H0V36.9988L4.44444 32.8128V20.2546C4.44444 13.243 9.68889 7.38254 16.6667 5.95928V3.51045ZM20 9.78953C26.1333 9.78953 31.1111 14.4779 31.1111 20.2546V34.9058H8.88892V20.2546C8.88892 14.4779 13.8667 9.78953 20 9.78953ZM15.5778 41.2058C15.5778 43.5081 17.5555 45.3709 20 45.3709C22.4445 45.3709 24.4222 43.5081 24.4222 41.2058H15.5778Z" fill="#152C5B"/>
</svg>
